inDegrees=no
num_controls=7
num_derivatives=13
num_iterations=105
num_multipliers=7
num_parameters=0
num_slacks=7
num_states=26
objective=5.065233
objective_accelerations=0.338974
objective_balance=0.026978
objective_effort=0.167142
objective_height=4.444605
objective_ligament=0.087534
solver_duration=1181.468881
status=Solve_Succeeded
success=true
DataType=double
version=3
OpenSimVersion=4.4-2022-07-23-0e9fedc
endheader
time	/jointset/ground_pelvis/pelvis_tilt/value	/jointset/ground_pelvis/pelvis_tx/value	/jointset/ground_pelvis/pelvis_ty/value	/jointset/hip_l/hip_flexion_l/value	/jointset/hip_l/hip_adduction_l/value	/jointset/hip_l/hip_rotation_l/value	/jointset/back/lumbar_extension/value	/jointset/patellofemoral_l/patellar_flexion_l/value	/jointset/knee_l/knee_flexion_l/value	/jointset/knee_l/knee_adduction_l/value	/jointset/knee_l/knee_rotation_l/value	/jointset/ankle_l/ankle_angle_l/value	/jointset/subtalar_l/subtalar_angle_l/value	/jointset/ground_pelvis/pelvis_tilt/speed	/jointset/ground_pelvis/pelvis_tx/speed	/jointset/ground_pelvis/pelvis_ty/speed	/jointset/hip_l/hip_flexion_l/speed	/jointset/hip_l/hip_adduction_l/speed	/jointset/hip_l/hip_rotation_l/speed	/jointset/back/lumbar_extension/speed	/jointset/patellofemoral_l/patellar_flexion_l/speed	/jointset/knee_l/knee_flexion_l/speed	/jointset/knee_l/knee_adduction_l/speed	/jointset/knee_l/knee_rotation_l/speed	/jointset/ankle_l/ankle_angle_l/speed	/jointset/subtalar_l/subtalar_angle_l/speed	/forceset/tau_hip_flexion_l	/forceset/tau_hip_adduction_l	/forceset/tau_hip_rotation_l	/forceset/tau_knee_flexion_l	/forceset/tau_ankle_angle_l	/forceset/tau_subtalar_angle_l	/forceset/tau_lumbar_extension	lambda_cid13_p0	lambda_cid13_p1	lambda_cid13_p2	lambda_cid13_p3	lambda_cid13_p4	lambda_cid13_p5	lambda_cid14_p0	/jointset/ground_pelvis/pelvis_tilt/accel	/jointset/ground_pelvis/pelvis_tx/accel	/jointset/ground_pelvis/pelvis_ty/accel	/jointset/hip_l/hip_flexion_l/accel	/jointset/hip_l/hip_adduction_l/accel	/jointset/hip_l/hip_rotation_l/accel	/jointset/back/lumbar_extension/accel	/jointset/patellofemoral_l/patellar_flexion_l/accel	/jointset/knee_l/knee_flexion_l/accel	/jointset/knee_l/knee_adduction_l/accel	/jointset/knee_l/knee_rotation_l/accel	/jointset/ankle_l/ankle_angle_l/accel	/jointset/subtalar_l/subtalar_angle_l/accel	gamma_cid13_p0	gamma_cid13_p1	gamma_cid13_p2	gamma_cid13_p3	gamma_cid13_p4	gamma_cid13_p5	gamma_cid14_p0
0.5	-0.1131675625347508	0.07108793129294955	0.8257239333552556	0.5961746293762462	-0.4390165779422765	-0.3065634941952184	-0.242388980497634	0.6601796145690479	0.6601796145690126	-0.1581163761626439	-0.1733923133847652	0.212567723879037	0.02687431863972097	-0.1806575384039602	0.01783236220537794	-0.2785004236175495	1.119223899077222	-0.2539973759127391	0.6532092236420495	-0.1659804666365465	1.583941188978187	1.583941188978075	0.021095134425116	-0.01201438182862197	0.7602852123677126	0.1367844654675445	-0.06364303391694846	0.03234081922539129	-0.01339095940082051	-0.2182958214988728	-0.0197845245315218	0.02485514920364203	0.09675280927594056	-39.6536371181138	-9.18185749074258	7.216441671753517	4.284462849231908	-533.5095880917935	-70.55756397526279	-32.37832544580022	0.06497779369461822	0.1130281988110836	-0.2720989696509541	-0.526684720632707	0.5156607440101412	-0.1687559013176723	0.7506828808279239	-1.099869937051691	-1.099869937051682	-0.141246546644162	0.08299091629799611	-0.4666146655903114	0.4246308850273082	-5.158251865663351e-08	-7.645676203146684e-07	3.748068234546611e-08	-1.599795841897581e-07	4.071362342116093e-09	-3.680253899354757e-07	-7.735470294832377e-08
0.51	-0.1149708088153217	0.07127187720690339	0.822925865365796	0.6073389411331833	-0.4415308224677214	-0.3000417122866364	-0.2440110341921099	0.6759619808439006	0.6759619808439367	-0.1579125133190823	-0.1735093729518986	0.2201461325366091	0.02826281429795316	-0.1799786918206689	0.01895324006801952	-0.2810547480640244	1.113482238687369	-0.2488344859930027	0.6510496390875263	-0.1584164083903438	1.572316997794392	1.572316997794332	0.01968355085271785	-0.011398695293945	0.7552934649425981	0.1408889701607971	-0.06564689952031368	0.03418581184966052	-0.01331187549275096	-0.220684926014953	-0.02296116515351292	0.02502452141712733	0.09849074293112757	-40.73686241122892	-9.021607556610062	7.140470789151672	4.694454580724417	-535.2405735759969	-70.33789833823299	-31.67204461403925	0.07130670321087929	0.1110496116122715	-0.2383353415926925	-0.6213221106261539	0.5192255049893216	-0.2542494516342551	0.7613468765336366	-1.225938411367327	-1.225938411359534	-0.1403054614129694	0.05069284074663297	-0.5309406997312071	0.3996178851619609	-6.770094118752532e-08	-7.191454660875402e-07	1.004527842498297e-07	-1.437021117071759e-07	-1.775162898638557e-08	-3.83405516608126e-07	-8.129067057758443e-08
0.52	-0.1167668729075366	0.07146691830580799	0.8201040068999825	0.6184411532037315	-0.4439929136161586	-0.2935444641674244	-0.2455570313881197	0.6916216562664456	0.6916216562665628	-0.1577226045510297	-0.1736203085899361	0.2276715265361792	0.02969160652785589	-0.179221100734827	0.0200513991955306	-0.2832585188883606	1.10680396179892	-0.2435667005119118	0.648302465768421	-0.1507691669434642	1.559403018517639	1.559403018517631	0.01830431932530734	-0.01078959601150623	0.7496822807671201	0.1448437798015624	-0.06765076512372509	0.03603080447393558	-0.01323279158473016	-0.2230740305310283	-0.02613780577549692	0.02519389363062471	0.1002286765862681	-41.82636439617344	-8.859701357706655	7.063599916067032	5.103622600334234	-537.0745300219493	-70.14444872751544	-30.95971784007638	0.08072669420455421	0.1084844517851377	-0.201988245223208	-0.7140080203520951	0.5366398562810079	-0.2862736542341819	0.767319520963219	-1.357827555643424	-1.3578275556434	-0.1347761376467131	0.0816734658503572	-0.5905020156628427	0.3946918745298979	-9.156591701171923e-08	-6.684086809934777e-07	1.948512874052418e-07	-1.219748394035505e-07	-5.26977562889026e-08	-4.112045094602261e-07	-8.86724553971605e-08
0.53	-0.1185547731777374	0.07167281429322059	0.817261926106436	0.6294716329685459	-0.4464018901623295	-0.2870772309718058	-0.2470264420840562	0.7071456630788296	0.7071456630789044	-0.1575466612135581	-0.1737248863240193	0.2351376872742722	0.03115904979720912	-0.1783444653547048	0.02112258101941366	-0.2850966079544197	1.099139304479786	-0.2382166930646015	0.6450495949721968	-0.1431078980400123	1.545193429085979	1.545193429085925	0.01688933160477853	-0.01012757143889436	0.7434508540027148	0.1486138344774758	-0.06957637740523999	0.03784522196283067	-0.01317496614580462	-0.2255082559917008	-0.02918046458817103	0.02527443651525263	0.1018937465212624	-42.8756539666601	-8.659171488637867	6.972476851837654	5.510953609995164	-538.8909649577436	-69.88547958027391	-30.24570797898877	0.09331149784249886	0.1056303454250476	-0.1655786679643157	-0.8155909304799399	0.5359945195669469	-0.3590567836406028	0.7662917054046704	-1.483243357970092	-1.48324335797709	-0.144194006547401	0.05826587929879945	-0.6543429184763101	0.3635803154897868	-1.004433531143494e-07	-6.154976685624599e-07	2.369919142229034e-07	-1.066911590708354e-07	-6.628475974931457e-08	-4.097892485070479e-07	-8.927022328010047e-08
0.54	-0.120333471186541	0.07188926115841904	0.8144032925360958	0.6404208868916165	-0.4487570039679006	-0.2806453790824155	-0.2484190878648835	0.7225214302526812	0.7225214302527261	-0.157384734536759	-0.1738228840271035	0.2425385577623932	0.0326632772235957	-0.1773806484575542	0.0221615747527001	-0.2865690742471521	1.090558793449206	-0.2327941523928615	0.6412262045230127	-0.1354161839218304	1.529755090812606	1.529755090812505	0.0155009871925949	-0.009473589812995677	0.7366242307724351	0.1522006112081024	-0.0715019896867775	0.03965963945174457	-0.01311714070690385	-0.2279424814523655	-0.03222312340083269	0.02535497939991314	0.1035588164562242	-43.92774056622458	-8.457417182290207	6.88032000939672	5.910227308396745	-540.7556521910915	-69.64638703430401	-29.53864668338155	0.09816299761006698	0.1020468336659471	-0.1288636905578529	-0.8971787626412248	0.5511465011669062	-0.4003775848262046	0.7734085639091418	-1.603577323986178	-1.603577323986194	-0.1294474759777468	0.08006487650773089	-0.7095413088375968	0.3580362854725977	-9.273883037610038e-08	-5.601811280139597e-07	2.213153161562445e-07	-9.853655921657456e-08	-5.624039215037598e-08	-3.76051834407604e-07	-8.236227029697491e-08
0.55	-0.1221021289201894	0.0721159215055099	0.8115317785439075	0.651279879729223	-0.4510575459391719	-0.274254467373033	-0.2497346994444246	0.7377367881505297	0.7377367881505427	-0.1572365239894273	-0.1739142575325903	0.2498682484093488	0.03420245384824829	-0.1763333860000334	0.02316397416449004	-0.2876700089520179	1.08108648202471	-0.2273069792563968	0.6368653003504952	-0.1277115975996654	1.513117718286244	1.513117718286116	0.01414259510882432	-0.00880136995399412	0.7292173943031439	0.155597510356234	-0.07334110107314977	0.04133667548287005	-0.01307681231799431	-0.2304693180799359	-0.03515973324678813	0.02542558058732484	0.1051448718904663	-44.9474933332073	-8.255440244533794	6.786337896349051	6.305483892654301	-542.6230365808329	-69.43309446375312	-28.83894382692619	0.1106389750499547	0.09833960239043724	-0.09116122698662936	-0.9952464717183884	0.5486106727957973	-0.4676366540730718	0.7681638241899801	-1.723617068854363	-1.723617068858599	-0.1388811553425411	0.06079687715826214	-0.7707541207160701	0.3249960750416375	-8.37526246933179e-08	-5.039062236706404e-07	2.016761898914661e-07	-9.049862222138041e-08	-4.521109823802248e-08	-3.393296804911762e-07	-7.486802089585914e-08
0.5600000000000001	-0.1238597878082066	0.07235240646820958	0.8086511646313634	0.6620395516247192	-0.4533029945884917	-0.2679099026694973	-0.2509734291291781	0.7527798123527356	0.7527798123527196	-0.1571018665791238	-0.1739989095721405	0.2571209708306655	0.03577449533349467	-0.1751808793334712	0.02412649787446212	-0.2883890583183092	1.070694605025616	-0.2217754880035614	0.6319568033536419	-0.1200398049647173	1.495288351684157	1.495288351684001	0.01279035979442668	-0.008129296632519101	0.7212305856442086	0.1587735833266991	-0.07518021245950572	0.0430137115140317	-0.01303648392929008	-0.2329961547074709	-0.03809634309272243	0.02549618177480117	0.1067309273247017	-45.97106717683064	-8.052114353242123	6.691364676518019	6.696160860787978	-544.5514830080116	-69.24042959845241	-28.14629343026417	0.119211839418203	0.09407169330249041	-0.0524866228429398	-1.081091877560691	0.5600101244410357	-0.5098961496933485	0.7668498264657072	-1.841976139131142	-1.84197613913115	-0.1282161221032182	0.08003556900244893	-0.8255357467663047	0.3138710499393869	-7.322839947709539e-08	-4.464812827735381e-07	1.772820297889444e-07	-8.260068065706636e-08	-3.299989274957116e-08	-2.990258387943679e-07	-6.667021579315517e-08
